<svg width="128" height="128" viewBox="0 0 128 128" xmlns="http://www.w3.org/2000/svg">
  <defs>
    <linearGradient id="purpleGradient" x1="0%" y1="0%" x2="100%" y2="100%">
      <stop offset="0%" style="stop-color:#8b5cf6;stop-opacity:1" />
      <stop offset="50%" style="stop-color:#6b46c1;stop-opacity:1" />
      <stop offset="100%" style="stop-color:#4c1d95;stop-opacity:1" />
    </linearGradient>
    <linearGradient id="goldAccent" x1="0%" y1="0%" x2="100%" y2="100%">
      <stop offset="0%" style="stop-color:#fbbf24;stop-opacity:1" />
      <stop offset="100%" style="stop-color:#f59e0b;stop-opacity:1" />
    </linearGradient>
  </defs>
  
  <!-- Background Circle -->
  <circle cx="64" cy="64" r="60" fill="url(#purpleGradient)" stroke="#a78bfa" stroke-width="2"/>
  
  <!-- Theme Icon - Paint Brush -->
  <g transform="translate(32, 32)">
    <!-- Brush Handle -->
    <rect x="45" y="35" width="8" height="25" fill="#f8fafc" rx="4"/>
    
    <!-- Brush Ferrule -->
    <rect x="43" y="30" width="12" height="8" fill="url(#goldAccent)" rx="2"/>
    
    <!-- Brush Bristles -->
    <ellipse cx="49" cy="25" rx="8" ry="12" fill="#e2e8f0"/>
    
    <!-- Paint Drop -->
    <circle cx="35" cy="20" r="4" fill="url(#goldAccent)">
      <animate attributeName="opacity" values="1;0.6;1" dur="2s" repeatCount="indefinite"/>
    </circle>
    
    <!-- Color Palette -->
    <rect x="15" y="40" width="20" height="15" fill="#f8fafc" rx="3" stroke="#cbd5e1" stroke-width="1"/>
    
    <!-- Palette Colors -->
    <circle cx="20" cy="45" r="2" fill="#6b46c1"/>
    <circle cx="26" cy="45" r="2" fill="#8b5cf6"/>
    <circle cx="32" cy="45" r="2" fill="#a78bfa"/>
    <circle cx="20" cy="50" r="2" fill="#4c1d95"/>
    <circle cx="26" cy="50" r="2" fill="#fbbf24"/>
    <circle cx="32" cy="50" r="2" fill="#f59e0b"/>
  </g>
  
  <!-- Decorative Elements -->
  <circle cx="20" cy="25" r="2" fill="#a78bfa" opacity="0.6">
    <animate attributeName="opacity" values="0.6;1;0.6" dur="3s" repeatCount="indefinite"/>
  </circle>
  <circle cx="108" cy="35" r="1.5" fill="#fbbf24" opacity="0.8">
    <animate attributeName="opacity" values="0.8;0.4;0.8" dur="2.5s" repeatCount="indefinite"/>
  </circle>
  <circle cx="25" cy="100" r="1" fill="#8b5cf6" opacity="0.7">
    <animate attributeName="opacity" values="0.7;1;0.7" dur="4s" repeatCount="indefinite"/>
  </circle>
</svg>